<?xml version="1.0" standalone="no"?><svg xmlns:xlink="http://www.w3.org/1999/xlink" xmlns="http://www.w3.org/2000/svg" viewBox="0 0 1000 545.4629634988338" preserveAspectRatio="xMaxYMax slice"><g transform="scale(1.4468513620658723)"><rect x="0" y="0" width="691.1666666666667" height="377" fill="#0f0e17"/><rect x="0" y="0" width="62.833333333333336" height="62.833333333333336" fill="#0f0e17"/><rect x="0" y="0" width="31.42" height="31.42" fill="#1c1a2a"/><path d="M 0 0 A 31.42 31.42 0 0 1  31.42 31.42 L 0 0 A 31.42 31.42 0 0 0 31.42 31.42" fill="#1c1a2a"/><rect x="31.42" y="0" width="31.42" height="31.42" fill="#100f19"/><path d="M 31.42 0 A 31.42 31.42 0 0 0 62.84 31.42 L 62.84 0" fill="#3a3a46"/><rect x="0" y="31.42" width="31.42" height="31.42" fill="#1b162e"/><path d="M 0 62.84 A 31.42 31.42 0 0 0 31.42 31.42 L 0 31.42" fill="#33265c"/><rect x="31.42" y="31.42" width="31.42" height="31.42" fill="#1b1929"/><path d="M 31.42 31.42 A 31.42 31.42 0 0 1 62.84 62.84 L 31.42 62.84" fill="#6d6e7f"/><rect x="62.833333333333336" y="0" width="62.833333333333336" height="62.833333333333336" fill="#0f0e17"/><rect x="62.83" y="0" width="31.42" height="31.42" fill="#533c9b"/><path d="M 62.83 31.42 A 31.42 31.42 0 0 1  94.25 0 L 94.25 31.42" fill="#493588"/><rect x="94.25" y="0" width="31.42" height="31.42" fill="#a0a2b6"/><path d="M 94.25 0 A 31.42 31.42 0 0 1  125.67 31.42 L 94.25 0 A 31.42 31.42 0 0 0 125.67 31.42" fill="#242136"/><rect x="62.83" y="31.42" width="31.42" height="31.42" fill="#1b1928"/><path d="M 62.83 62.84 A 31.42 31.42 0 0 1  94.25 31.42 L 94.25 62.84" fill="#444451"/><rect x="94.25" y="31.42" width="31.42" height="31.42" fill="#14121e"/><path d="M 94.25 62.84 A 31.42 31.42 0 0 1  125.67 31.42 L 125.67 62.84" fill="#222033"/><rect x="125.66666666666667" y="0" width="62.833333333333336" height="62.833333333333336" fill="#0f0e17"/><rect x="125.67" y="0" width="31.42" height="31.42" fill="#9b9db1"/><path d="M 125.67 31.42 A 31.42 31.42 0 0 1  157.09 0 L 125.67 31.42 A 31.42 31.42 0 0 0 157.09 0" fill="#363642"/><rect x="157.08" y="0" width="31.42" height="31.42" fill="#231b3d"/><path d="M 157.08 31.42 A 31.42 31.42 0 0 1  188.5 0 L 157.08 31.42 A 31.42 31.42 0 0 0 188.5 0" fill="#2f2454"/><rect x="125.67" y="31.42" width="31.42" height="31.42" fill="#27243a"/><path d="M 125.67 62.84 A 31.42 31.42 0 0 0 157.09 31.42 L 125.67 31.42" fill="#535462"/><rect x="157.08" y="31.42" width="31.42" height="31.42" fill="#1b1929"/><path d="M 157.08 31.42 A 31.42 31.42 0 0 1  188.5 62.84 L 157.08 31.42 A 31.42 31.42 0 0 0 188.5 62.84" fill="#4e3991"/><rect x="188.5" y="0" width="62.83" height="62.83" fill="#717283"/><path d="M 188.5 0 A 62.83 62.83 0 0 0 251.32999999999998 62.83 L 251.32999999999998 0" fill="#6347ba"/><rect x="251.33333333333334" y="0" width="62.833333333333336" height="62.833333333333336" fill="#0f0e17"/><rect x="251.33" y="0" width="31.42" height="31.42" fill="#717182"/><path d="M 251.33 0 A 31.42 31.42 0 0 0 282.75 31.42 L 282.75 0" fill="#100f19"/><rect x="282.75" y="0" width="31.42" height="31.42" fill="#211f32"/><path d="M 282.75 31.42 A 31.42 31.42 0 0 0 314.17 0 L 282.75 0" fill="#674ac2"/><rect x="251.33" y="31.42" width="31.42" height="31.42" fill="#4a3689"/><path d="M 251.33 31.42 A 31.42 31.42 0 0 0 282.75 62.84 L 282.75 31.42" fill="#231b3d"/><rect x="282.75" y="31.42" width="31.42" height="31.42" fill="#222033"/><path d="M 282.75 31.42 A 31.42 31.42 0 0 0 314.17 62.84 L 314.17 31.42" fill="#161325"/><rect x="314.17" y="0" width="62.83" height="62.83" fill="#4d4d5b"/><path d="M 314.17 0 A 62.83 62.83 0 0 1  377 62.83 L 314.17 0 A 62.83 62.83 0 0 0 377 62.83" fill="#1e1c2d"/><rect x="377" y="0" width="62.83" height="62.83" fill="#1e1c2e"/><path d="M 377 0 A 62.83 62.83 0 0 1 439.83 62.83 L 377 62.83" fill="#271e45"/><rect x="439.83333333333337" y="0" width="62.833333333333336" height="62.833333333333336" fill="#0f0e17"/><rect x="439.83" y="0" width="31.42" height="31.42" fill="#11101a"/><path d="M 439.83 31.42 A 31.42 31.42 0 0 1  471.25 0 L 439.83 31.42 A 31.42 31.42 0 0 0 471.25 0" fill="#543d9c"/><rect x="471.25" y="0" width="31.42" height="31.42" fill="#302456"/><path d="M 471.25 0 A 31.42 31.42 0 0 0 502.67 31.42 L 502.67 0" fill="#684ac3"/><rect x="439.83" y="31.42" width="31.42" height="31.42" fill="#9d9fb3"/><path d="M 439.83 31.42 A 31.42 31.42 0 0 1 471.25 62.84 L 439.83 62.84" fill="#9597ab"/><rect x="471.25" y="31.42" width="31.42" height="31.42" fill="#222034"/><path d="M 471.25 31.42 A 31.42 31.42 0 0 1 502.67 62.84 L 471.25 62.84" fill="#12101b"/><rect x="502.6666666666667" y="0" width="62.833333333333336" height="62.833333333333336" fill="#0f0e17"/><rect x="502.67" y="0" width="31.42" height="31.42" fill="#9092a5"/><path d="M 502.67 0 A 31.42 31.42 0 0 0 534.09 31.42 L 534.09 0" fill="#13121d"/><rect x="534.08" y="0" width="31.42" height="31.42" fill="#463382"/><path d="M 534.08 31.42 A 31.42 31.42 0 0 0 565.5 0 L 534.08 0" fill="#252238"/><rect x="502.67" y="31.42" width="31.42" height="31.42" fill="#757687"/><path d="M 502.67 31.42 A 31.42 31.42 0 0 1  534.09 62.84 L 502.67 31.42 A 31.42 31.42 0 0 0 534.09 62.84" fill="#211f32"/><rect x="534.08" y="31.42" width="31.42" height="31.42" fill="#454552"/><path d="M 534.08 31.42 A 31.42 31.42 0 0 0 565.5 62.84 L 565.5 31.42" fill="#7453db"/><rect x="565.5" y="0" width="62.833333333333336" height="62.833333333333336" fill="#0f0e17"/><rect x="565.5" y="0" width="31.42" height="31.42" fill="#2b214c"/><path d="M 565.5 0 A 31.42 31.42 0 0 1 596.92 31.42 L 565.5 31.42" fill="#151420"/><rect x="596.92" y="0" width="31.42" height="31.42" fill="#7c7d8e"/><path d="M 596.92 31.42 A 31.42 31.42 0 0 0 628.3399999999999 0 L 596.92 0" fill="#151222"/><rect x="565.5" y="31.42" width="31.42" height="31.42" fill="#1b1929"/><path d="M 565.5 31.42 A 31.42 31.42 0 0 0 596.92 62.84 L 596.92 31.42" fill="#1d1b2c"/><rect x="596.92" y="31.42" width="31.42" height="31.42" fill="#1c1a2b"/><path d="M 596.92 31.42 A 31.42 31.42 0 0 0 628.3399999999999 62.84 L 628.3399999999999 31.42" fill="#252338"/><rect x="628.33" y="0" width="62.83" height="62.83" fill="#151421"/><path d="M 628.33 62.83 A 62.83 62.83 0 0 0 691.1600000000001 0 L 628.33 0" fill="#171523"/><rect x="0" y="62.83" width="62.83" height="62.83" fill="#211f32"/><path d="M 0 125.66 A 62.83 62.83 0 0 0 62.83 62.83 L 0 62.83" fill="#2b2a35"/><rect x="62.83" y="62.83" width="62.83" height="62.83" fill="#1e1c2d"/><path d="M 62.83 62.83 A 62.83 62.83 0 0 1  125.66 125.66 L 62.83 62.83 A 62.83 62.83 0 0 0 125.66 125.66" fill="#1b1b25"/><rect x="125.66666666666667" y="62.833333333333336" width="62.833333333333336" height="62.833333333333336" fill="#0f0e17"/><rect x="125.67" y="62.83" width="31.42" height="31.42" fill="#5b42ab"/><path d="M 125.67 94.25 A 31.42 31.42 0 0 1  157.09 62.83 L 125.67 94.25 A 31.42 31.42 0 0 0 157.09 62.83" fill="#0f0e17"/><rect x="157.08" y="62.83" width="31.42" height="31.42" fill="#282833"/><path d="M 157.08 94.25 A 31.42 31.42 0 0 1  188.5 62.83 L 157.08 94.25 A 31.42 31.42 0 0 0 188.5 62.83" fill="#5f44b2"/><rect x="125.67" y="94.25" width="31.42" height="31.42" fill="#9799ad"/><path d="M 125.67 94.25 A 31.42 31.42 0 0 1 157.09 125.67 L 125.67 125.67" fill="#211f32"/><rect x="157.08" y="94.25" width="31.42" height="31.42" fill="#232034"/><path d="M 157.08 94.25 A 31.42 31.42 0 0 0 188.5 125.67 L 188.5 94.25" fill="#28253c"/><rect x="188.5" y="62.83" width="62.83" height="62.83" fill="#29263e"/><path d="M 188.5 62.83 A 62.83 62.83 0 0 1  251.32999999999998 125.66 L 188.5 62.83 A 62.83 62.83 0 0 0 251.32999999999998 125.66" fill="#4c4c5a"/><rect x="251.33333333333334" y="62.833333333333336" width="62.833333333333336" height="62.833333333333336" fill="#0f0e17"/><rect x="251.33" y="62.83" width="31.42" height="31.42" fill="#312558"/><path d="M 251.33 94.25 A 31.42 31.42 0 0 0 282.75 62.83 L 251.33 62.83" fill="#15131f"/><rect x="282.75" y="62.83" width="31.42" height="31.42" fill="#29263d"/><path d="M 282.75 94.25 A 31.42 31.42 0 0 0 314.17 62.83 L 282.75 62.83" fill="#5d5d6c"/><rect x="251.33" y="94.25" width="31.42" height="31.42" fill="#383744"/><path d="M 251.33 125.67 A 31.42 31.42 0 0 0 282.75 94.25 L 251.33 94.25" fill="#7d7e8f"/><rect x="282.75" y="94.25" width="31.42" height="31.42" fill="#717283"/><path d="M 282.75 125.67 A 31.42 31.42 0 0 1  314.17 94.25 L 314.17 125.67" fill="#231c3e"/><rect x="314.1666666666667" y="62.833333333333336" width="62.833333333333336" height="62.833333333333336" fill="#0f0e17"/><rect x="314.17" y="62.83" width="31.42" height="31.42" fill="#513b98"/><path d="M 314.17 94.25 A 31.42 31.42 0 0 1  345.59000000000003 62.83 L 314.17 94.25 A 31.42 31.42 0 0 0 345.59000000000003 62.83" fill="#343440"/><rect x="345.58" y="62.83" width="31.42" height="31.42" fill="#15141d"/><path d="M 345.58 94.25 A 31.42 31.42 0 0 0 377 62.83 L 345.58 62.83" fill="#252237"/><rect x="314.17" y="94.25" width="31.42" height="31.42" fill="#222033"/><path d="M 314.17 94.25 A 31.42 31.42 0 0 1 345.59000000000003 125.67 L 314.17 125.67" fill="#27253b"/><rect x="345.58" y="94.25" width="31.42" height="31.42" fill="#151420"/><path d="M 345.58 94.25 A 31.42 31.42 0 0 1 377 125.67 L 345.58 125.67" fill="#171522"/><rect x="377" y="62.83" width="62.83" height="62.83" fill="#3d2d70"/><path d="M 377 62.83 A 62.83 62.83 0 0 0 439.83 125.66 L 439.83 62.83" fill="#2d2251"/><rect x="439.83" y="62.83" width="62.83" height="62.83" fill="#999baf"/><path d="M 439.83 125.66 A 62.83 62.83 0 0 1  502.65999999999997 62.83 L 502.65999999999997 125.66" fill="#694bc5"/><rect x="502.6666666666667" y="62.833333333333336" width="62.833333333333336" height="62.833333333333336" fill="#0f0e17"/><rect x="502.67" y="62.83" width="31.42" height="31.42" fill="#40404d"/><path d="M 502.67 94.25 A 31.42 31.42 0 0 1  534.09 62.83 L 534.09 94.25" fill="#4c388e"/><rect x="534.08" y="62.83" width="31.42" height="31.42" fill="#7150d4"/><path d="M 534.08 62.83 A 31.42 31.42 0 0 1  565.5 94.25 L 534.08 62.83 A 31.42 31.42 0 0 0 565.5 94.25" fill="#5e43af"/><rect x="502.67" y="94.25" width="31.42" height="31.42" fill="#161522"/><path d="M 502.67 125.67 A 31.42 31.42 0 0 0 534.09 94.25 L 502.67 94.25" fill="#3b2c6c"/><rect x="534.08" y="94.25" width="31.42" height="31.42" fill="#5d5e6d"/><path d="M 534.08 94.25 A 31.42 31.42 0 0 1 565.5 125.67 L 534.08 125.67" fill="#1d1b2c"/><rect x="565.5" y="62.833333333333336" width="62.833333333333336" height="62.833333333333336" fill="#0f0e17"/><rect x="565.5" y="62.83" width="31.42" height="31.42" fill="#242136"/><path d="M 565.5 62.83 A 31.42 31.42 0 0 0 596.92 94.25 L 596.92 62.83" fill="#5940a7"/><rect x="596.92" y="62.83" width="31.42" height="31.42" fill="#21212b"/><path d="M 596.92 62.83 A 31.42 31.42 0 0 1  628.3399999999999 94.25 L 596.92 62.83 A 31.42 31.42 0 0 0 628.3399999999999 94.25" fill="#7151d5"/><rect x="565.5" y="94.25" width="31.42" height="31.42" fill="#211f32"/><path d="M 565.5 94.25 A 31.42 31.42 0 0 1 596.92 125.67 L 565.5 125.67" fill="#4e4e5c"/><rect x="596.92" y="94.25" width="31.42" height="31.42" fill="#5840a5"/><path d="M 596.92 125.67 A 31.42 31.42 0 0 1  628.3399999999999 94.25 L 596.92 125.67 A 31.42 31.42 0 0 0 628.3399999999999 94.25" fill="#28253c"/><rect x="628.3333333333334" y="62.833333333333336" width="62.833333333333336" height="62.833333333333336" fill="#0f0e17"/><rect x="628.33" y="62.83" width="31.42" height="31.42" fill="#757687"/><path d="M 628.33 94.25 A 31.42 31.42 0 0 1  659.75 62.83 L 628.33 94.25 A 31.42 31.42 0 0 0 659.75 62.83" fill="#555564"/><rect x="659.75" y="62.83" width="31.42" height="31.42" fill="#2b214e"/><path d="M 659.75 94.25 A 31.42 31.42 0 0 1  691.17 62.83 L 691.17 94.25" fill="#6649c0"/><rect x="628.33" y="94.25" width="31.42" height="31.42" fill="#4f3993"/><path d="M 628.33 94.25 A 31.42 31.42 0 0 1  659.75 125.67 L 628.33 94.25 A 31.42 31.42 0 0 0 659.75 125.67" fill="#563ea1"/><rect x="659.75" y="94.25" width="31.42" height="31.42" fill="#7c7d8f"/><path d="M 659.75 125.67 A 31.42 31.42 0 0 0 691.17 94.25 L 659.75 94.25" fill="#261d43"/><rect x="0" y="125.66666666666667" width="62.833333333333336" height="62.833333333333336" fill="#0f0e17"/><rect x="0" y="125.67" width="31.42" height="31.42" fill="#25252f"/><path d="M 0 157.09 A 31.42 31.42 0 0 1  31.42 125.67 L 31.42 157.09" fill="#5b42ab"/><rect x="31.42" y="125.67" width="31.42" height="31.42" fill="#1c1730"/><path d="M 31.42 157.09 A 31.42 31.42 0 0 1  62.84 125.67 L 62.84 157.09" fill="#9193a6"/><rect x="0" y="157.08" width="31.42" height="31.42" fill="#383844"/><path d="M 0 188.5 A 31.42 31.42 0 0 1  31.42 157.08 L 0 188.5 A 31.42 31.42 0 0 0 31.42 157.08" fill="#898b9d"/><rect x="31.42" y="157.08" width="31.42" height="31.42" fill="#9697ab"/><path d="M 31.42 157.08 A 31.42 31.42 0 0 0 62.84 188.5 L 62.84 157.08" fill="#32265b"/><rect x="62.83" y="125.67" width="62.83" height="62.83" fill="#1c1a2a"/><path d="M 62.83 188.5 A 62.83 62.83 0 0 0 125.66 125.67 L 62.83 125.67" fill="#4f3993"/><rect x="125.66666666666667" y="125.66666666666667" width="62.833333333333336" height="62.833333333333336" fill="#0f0e17"/><rect x="125.67" y="125.67" width="31.42" height="31.42" fill="#42424f"/><path d="M 125.67 125.67 A 31.42 31.42 0 0 1 157.09 157.09 L 125.67 157.09" fill="#6f4fd1"/><rect x="157.08" y="125.67" width="31.42" height="31.42" fill="#7151d5"/><path d="M 157.08 157.09 A 31.42 31.42 0 0 1  188.5 125.67 L 157.08 157.09 A 31.42 31.42 0 0 0 188.5 125.67" fill="#14121e"/><rect x="125.67" y="157.08" width="31.42" height="31.42" fill="#0f0e17"/><path d="M 125.67 188.5 A 31.42 31.42 0 0 1  157.09 157.08 L 157.09 188.5" fill="#201e31"/><rect x="157.08" y="157.08" width="31.42" height="31.42" fill="#181721"/><path d="M 157.08 157.08 A 31.42 31.42 0 0 1 188.5 188.5 L 157.08 188.5" fill="#413078"/><rect x="188.5" y="125.66666666666667" width="62.833333333333336" height="62.833333333333336" fill="#0f0e17"/><rect x="188.5" y="125.67" width="31.42" height="31.42" fill="#5e44b1"/><path d="M 188.5 157.09 A 31.42 31.42 0 0 1  219.92000000000002 125.67 L 219.92000000000002 157.09" fill="#6649c0"/><rect x="219.92" y="125.67" width="31.42" height="31.42" fill="#6145b5"/><path d="M 219.92 125.67 A 31.42 31.42 0 0 1  251.33999999999997 157.09 L 219.92 125.67 A 31.42 31.42 0 0 0 251.33999999999997 157.09" fill="#828395"/><rect x="188.5" y="157.08" width="31.42" height="31.42" fill="#6347b9"/><path d="M 188.5 157.08 A 31.42 31.42 0 0 1  219.92000000000002 188.5 L 188.5 157.08 A 31.42 31.42 0 0 0 219.92000000000002 188.5" fill="#1c1a2a"/><rect x="219.92" y="157.08" width="31.42" height="31.42" fill="#797a8c"/><path d="M 219.92 188.5 A 31.42 31.42 0 0 1  251.33999999999997 157.08 L 251.33999999999997 188.5" fill="#828396"/><rect x="251.33333333333334" y="125.66666666666667" width="62.833333333333336" height="62.833333333333336" fill="#0f0e17"/><rect x="251.33" y="125.67" width="31.42" height="31.42" fill="#6d4ecd"/><path d="M 251.33 157.09 A 31.42 31.42 0 0 1  282.75 125.67 L 251.33 157.09 A 31.42 31.42 0 0 0 282.75 125.67" fill="#363642"/><rect x="282.75" y="125.67" width="31.42" height="31.42" fill="#7252d8"/><path d="M 282.75 157.09 A 31.42 31.42 0 0 1  314.17 125.67 L 314.17 157.09" fill="#565665"/><rect x="251.33" y="157.08" width="31.42" height="31.42" fill="#2f2455"/><path d="M 251.33 188.5 A 31.42 31.42 0 0 1  282.75 157.08 L 251.33 188.5 A 31.42 31.42 0 0 0 282.75 157.08" fill="#674ac2"/><rect x="282.75" y="157.08" width="31.42" height="31.42" fill="#181725"/><path d="M 282.75 157.08 A 31.42 31.42 0 0 0 314.17 188.5 L 314.17 157.08" fill="#22212c"/><rect x="314.1666666666667" y="125.66666666666667" width="62.833333333333336" height="62.833333333333336" fill="#0f0e17"/><rect x="314.17" y="125.67" width="31.42" height="31.42" fill="#9597ab"/><path d="M 314.17 125.67 A 31.42 31.42 0 0 1  345.59000000000003 157.09 L 314.17 125.67 A 31.42 31.42 0 0 0 345.59000000000003 157.09" fill="#9496a9"/><rect x="345.58" y="125.67" width="31.42" height="31.42" fill="#6145b5"/><path d="M 345.58 157.09 A 31.42 31.42 0 0 1  377 125.67 L 345.58 157.09 A 31.42 31.42 0 0 0 377 125.67" fill="#4b378c"/><rect x="314.17" y="157.08" width="31.42" height="31.42" fill="#222034"/><path d="M 314.17 188.5 A 31.42 31.42 0 0 1  345.59000000000003 157.08 L 314.17 188.5 A 31.42 31.42 0 0 0 345.59000000000003 157.08" fill="#2c2b36"/><rect x="345.58" y="157.08" width="31.42" height="31.42" fill="#9697ab"/><path d="M 345.58 157.08 A 31.42 31.42 0 0 1 377 188.5 L 345.58 188.5" fill="#402f76"/><rect x="377" y="125.67" width="62.83" height="62.83" fill="#232135"/><path d="M 377 125.67 A 62.83 62.83 0 0 1 439.83 188.5 L 377 188.5" fill="#1c172f"/><rect x="439.83" y="125.67" width="62.83" height="62.83" fill="#292833"/><path d="M 439.83 125.67 A 62.83 62.83 0 0 0 502.65999999999997 188.5 L 502.65999999999997 125.67" fill="#28253c"/><rect x="502.6666666666667" y="125.66666666666667" width="62.833333333333336" height="62.833333333333336" fill="#0f0e17"/><rect x="502.67" y="125.67" width="31.42" height="31.42" fill="#44327f"/><path d="M 502.67 157.09 A 31.42 31.42 0 0 1  534.09 125.67 L 502.67 157.09 A 31.42 31.42 0 0 0 534.09 125.67" fill="#352861"/><rect x="534.08" y="125.67" width="31.42" height="31.42" fill="#a7a9be"/><path d="M 534.08 125.67 A 31.42 31.42 0 0 1 565.5 157.09 L 534.08 157.09" fill="#13121d"/><rect x="502.67" y="157.08" width="31.42" height="31.42" fill="#43317c"/><path d="M 502.67 157.08 A 31.42 31.42 0 0 0 534.09 188.5 L 534.09 157.08" fill="#a4a6bb"/><rect x="534.08" y="157.08" width="31.42" height="31.42" fill="#222034"/><path d="M 534.08 157.08 A 31.42 31.42 0 0 0 565.5 188.5 L 565.5 157.08" fill="#2c2b36"/><rect x="565.5" y="125.66666666666667" width="62.833333333333336" height="62.833333333333336" fill="#0f0e17"/><rect x="565.5" y="125.67" width="31.42" height="31.42" fill="#110f19"/><path d="M 565.5 157.09 A 31.42 31.42 0 0 1  596.92 125.67 L 596.92 157.09" fill="#231c3e"/><rect x="596.92" y="125.67" width="31.42" height="31.42" fill="#575866"/><path d="M 596.92 157.09 A 31.42 31.42 0 0 1  628.3399999999999 125.67 L 596.92 157.09 A 31.42 31.42 0 0 0 628.3399999999999 125.67" fill="#44327d"/><rect x="565.5" y="157.08" width="31.42" height="31.42" fill="#1b162e"/><path d="M 565.5 188.5 A 31.42 31.42 0 0 1  596.92 157.08 L 565.5 188.5 A 31.42 31.42 0 0 0 596.92 157.08" fill="#14131e"/><rect x="596.92" y="157.08" width="31.42" height="31.42" fill="#13121d"/><path d="M 596.92 157.08 A 31.42 31.42 0 0 0 628.3399999999999 188.5 L 628.3399999999999 157.08" fill="#6247b9"/><rect x="628.3333333333334" y="125.66666666666667" width="62.833333333333336" height="62.833333333333336" fill="#0f0e17"/><rect x="628.33" y="125.67" width="31.42" height="31.42" fill="#191726"/><path d="M 628.33 125.67 A 31.42 31.42 0 0 1 659.75 157.09 L 628.33 157.09" fill="#3b2c6c"/><rect x="659.75" y="125.67" width="31.42" height="31.42" fill="#1d1b2c"/><path d="M 659.75 157.09 A 31.42 31.42 0 0 1  691.17 125.67 L 691.17 157.09" fill="#1a1928"/><rect x="628.33" y="157.08" width="31.42" height="31.42" fill="#8d8fa2"/><path d="M 628.33 157.08 A 31.42 31.42 0 0 1  659.75 188.5 L 628.33 157.08 A 31.42 31.42 0 0 0 659.75 188.5" fill="#151420"/><rect x="659.75" y="157.08" width="31.42" height="31.42" fill="#21202b"/><path d="M 659.75 188.5 A 31.42 31.42 0 0 1  691.17 157.08 L 691.17 188.5" fill="#616271"/><rect x="0" y="188.5" width="62.83" height="62.83" fill="#372964"/><path d="M 0 251.32999999999998 A 62.83 62.83 0 0 1  62.83 188.5 L 62.83 251.32999999999998" fill="#797a8c"/><rect x="62.833333333333336" y="188.5" width="62.833333333333336" height="62.833333333333336" fill="#0f0e17"/><rect x="62.83" y="188.5" width="31.42" height="31.42" fill="#5b42ab"/><path d="M 62.83 188.5 A 31.42 31.42 0 0 1  94.25 219.92000000000002 L 62.83 188.5 A 31.42 31.42 0 0 0 94.25 219.92000000000002" fill="#2a273f"/><rect x="94.25" y="188.5" width="31.42" height="31.42" fill="#3b2c6c"/><path d="M 94.25 219.92000000000002 A 31.42 31.42 0 0 1  125.67 188.5 L 94.25 219.92000000000002 A 31.42 31.42 0 0 0 125.67 188.5" fill="#19152b"/><rect x="62.83" y="219.92" width="31.42" height="31.42" fill="#5d43ae"/><path d="M 62.83 251.33999999999997 A 31.42 31.42 0 0 1  94.25 219.92 L 94.25 251.33999999999997" fill="#5940a6"/><rect x="94.25" y="219.92" width="31.42" height="31.42" fill="#232034"/><path d="M 94.25 251.33999999999997 A 31.42 31.42 0 0 1  125.67 219.92 L 125.67 251.33999999999997" fill="#676878"/><rect x="125.66666666666667" y="188.5" width="62.833333333333336" height="62.833333333333336" fill="#0f0e17"/><rect x="125.67" y="188.5" width="31.42" height="31.42" fill="#27253b"/><path d="M 125.67 219.92000000000002 A 31.42 31.42 0 0 1  157.09 188.5 L 157.09 219.92000000000002" fill="#1c1a2a"/><rect x="157.08" y="188.5" width="31.42" height="31.42" fill="#2f2456"/><path d="M 157.08 219.92000000000002 A 31.42 31.42 0 0 1  188.5 188.5 L 188.5 219.92000000000002" fill="#191826"/><rect x="125.67" y="219.92" width="31.42" height="31.42" fill="#3a2b6b"/><path d="M 125.67 219.92 A 31.42 31.42 0 0 1 157.09 251.33999999999997 L 125.67 251.33999999999997" fill="#2e2e39"/><rect x="157.08" y="219.92" width="31.42" height="31.42" fill="#1e1c2d"/><path d="M 157.08 251.33999999999997 A 31.42 31.42 0 0 1  188.5 219.92 L 188.5 251.33999999999997" fill="#242236"/><rect x="188.5" y="188.5" width="62.833333333333336" height="62.833333333333336" fill="#0f0e17"/><rect x="188.5" y="188.5" width="31.42" height="31.42" fill="#222033"/><path d="M 188.5 188.5 A 31.42 31.42 0 0 0 219.92000000000002 219.92000000000002 L 219.92000000000002 188.5" fill="#181624"/><rect x="219.92" y="188.5" width="31.42" height="31.42" fill="#737485"/><path d="M 219.92 188.5 A 31.42 31.42 0 0 1  251.33999999999997 219.92000000000002 L 219.92 188.5 A 31.42 31.42 0 0 0 251.33999999999997 219.92000000000002" fill="#6447bb"/><rect x="188.5" y="219.92" width="31.42" height="31.42" fill="#1b1929"/><path d="M 188.5 219.92 A 31.42 31.42 0 0 1 219.92000000000002 251.33999999999997 L 188.5 251.33999999999997" fill="#262339"/><rect x="219.92" y="219.92" width="31.42" height="31.42" fill="#5940a6"/><path d="M 219.92 219.92 A 31.42 31.42 0 0 0 251.33999999999997 251.33999999999997 L 251.33999999999997 219.92" fill="#9092a5"/><rect x="251.33333333333334" y="188.5" width="62.833333333333336" height="62.833333333333336" fill="#0f0e17"/><rect x="251.33" y="188.5" width="31.42" height="31.42" fill="#583fa4"/><path d="M 251.33 219.92000000000002 A 31.42 31.42 0 0 1  282.75 188.5 L 282.75 219.92000000000002" fill="#100f18"/><rect x="282.75" y="188.5" width="31.42" height="31.42" fill="#6246b8"/><path d="M 282.75 188.5 A 31.42 31.42 0 0 1  314.17 219.92000000000002 L 282.75 188.5 A 31.42 31.42 0 0 0 314.17 219.92000000000002" fill="#483586"/><rect x="251.33" y="219.92" width="31.42" height="31.42" fill="#1e1d27"/><path d="M 251.33 219.92 A 31.42 31.42 0 0 1 282.75 251.33999999999997 L 251.33 251.33999999999997" fill="#1f1e29"/><rect x="282.75" y="219.92" width="31.42" height="31.42" fill="#7654de"/><path d="M 282.75 251.33999999999997 A 31.42 31.42 0 0 1  314.17 219.92 L 314.17 251.33999999999997" fill="#12111b"/><rect x="314.1666666666667" y="188.5" width="62.833333333333336" height="62.833333333333336" fill="#0f0e17"/><rect x="314.17" y="188.5" width="31.42" height="31.42" fill="#6f4fd2"/><path d="M 314.17 219.92000000000002 A 31.42 31.42 0 0 1  345.59000000000003 188.5 L 345.59000000000003 219.92000000000002" fill="#393945"/><rect x="345.58" y="188.5" width="31.42" height="31.42" fill="#50505e"/><path d="M 345.58 188.5 A 31.42 31.42 0 0 1  377 219.92000000000002 L 345.58 188.5 A 31.42 31.42 0 0 0 377 219.92000000000002" fill="#9192a6"/><rect x="314.17" y="219.92" width="31.42" height="31.42" fill="#232034"/><path d="M 314.17 251.33999999999997 A 31.42 31.42 0 0 1  345.59000000000003 219.92 L 345.59000000000003 251.33999999999997" fill="#1d1b2c"/><rect x="345.58" y="219.92" width="31.42" height="31.42" fill="#242136"/><path d="M 345.58 251.33999999999997 A 31.42 31.42 0 0 0 377 219.92 L 345.58 219.92" fill="#1c1b25"/><rect x="377" y="188.5" width="62.833333333333336" height="62.833333333333336" fill="#0f0e17"/><rect x="377" y="188.5" width="31.42" height="31.42" fill="#5d5d6c"/><path d="M 377 188.5 A 31.42 31.42 0 0 0 408.42 219.92000000000002 L 408.42 188.5" fill="#261e44"/><rect x="408.42" y="188.5" width="31.42" height="31.42" fill="#372965"/><path d="M 408.42 219.92000000000002 A 31.42 31.42 0 0 1  439.84000000000003 188.5 L 408.42 219.92000000000002 A 31.42 31.42 0 0 0 439.84000000000003 188.5" fill="#14121e"/><rect x="377" y="219.92" width="31.42" height="31.42" fill="#7654de"/><path d="M 377 219.92 A 31.42 31.42 0 0 0 408.42 251.33999999999997 L 408.42 219.92" fill="#29263d"/><rect x="408.42" y="219.92" width="31.42" height="31.42" fill="#13121d"/><path d="M 408.42 219.92 A 31.42 31.42 0 0 0 439.84000000000003 251.33999999999997 L 439.84000000000003 219.92" fill="#7a56e6"/><rect x="439.83" y="188.5" width="62.83" height="62.83" fill="#999aae"/><path d="M 439.83 251.32999999999998 A 62.83 62.83 0 0 1  502.65999999999997 188.5 L 502.65999999999997 251.32999999999998" fill="#848698"/><rect x="502.6666666666667" y="188.5" width="62.833333333333336" height="62.833333333333336" fill="#0f0e17"/><rect x="502.67" y="188.5" width="31.42" height="31.42" fill="#242136"/><path d="M 502.67 188.5 A 31.42 31.42 0 0 0 534.09 219.92000000000002 L 534.09 188.5" fill="#684bc4"/><rect x="534.08" y="188.5" width="31.42" height="31.42" fill="#13121d"/><path d="M 534.08 219.92000000000002 A 31.42 31.42 0 0 1  565.5 188.5 L 565.5 219.92000000000002" fill="#261d43"/><rect x="502.67" y="219.92" width="31.42" height="31.42" fill="#4d4d5b"/><path d="M 502.67 251.33999999999997 A 31.42 31.42 0 0 1  534.09 219.92 L 534.09 251.33999999999997" fill="#808294"/><rect x="534.08" y="219.92" width="31.42" height="31.42" fill="#9c9eb2"/><path d="M 534.08 251.33999999999997 A 31.42 31.42 0 0 1  565.5 219.92 L 565.5 251.33999999999997" fill="#242237"/><rect x="565.5" y="188.5" width="62.833333333333336" height="62.833333333333336" fill="#0f0e17"/><rect x="565.5" y="188.5" width="31.42" height="31.42" fill="#6045b4"/><path d="M 565.5 219.92000000000002 A 31.42 31.42 0 0 1  596.92 188.5 L 565.5 219.92000000000002 A 31.42 31.42 0 0 0 596.92 188.5" fill="#707182"/><rect x="596.92" y="188.5" width="31.42" height="31.42" fill="#2a273f"/><path d="M 596.92 219.92000000000002 A 31.42 31.42 0 0 1  628.3399999999999 188.5 L 628.3399999999999 219.92000000000002" fill="#211e31"/><rect x="565.5" y="219.92" width="31.42" height="31.42" fill="#1d1b2c"/><path d="M 565.5 251.33999999999997 A 31.42 31.42 0 0 0 596.92 219.92 L 565.5 219.92" fill="#2c2b37"/><rect x="596.92" y="219.92" width="31.42" height="31.42" fill="#6d4ecd"/><path d="M 596.92 251.33999999999997 A 31.42 31.42 0 0 1  628.3399999999999 219.92 L 628.3399999999999 251.33999999999997" fill="#28253b"/><rect x="628.3333333333334" y="188.5" width="62.833333333333336" height="62.833333333333336" fill="#0f0e17"/><rect x="628.33" y="188.5" width="31.42" height="31.42" fill="#252338"/><path d="M 628.33 219.92000000000002 A 31.42 31.42 0 0 1  659.75 188.5 L 659.75 219.92000000000002" fill="#171427"/><rect x="659.75" y="188.5" width="31.42" height="31.42" fill="#191725"/><path d="M 659.75 188.5 A 31.42 31.42 0 0 0 691.17 219.92000000000002 L 691.17 188.5" fill="#44327e"/><rect x="628.33" y="219.92" width="31.42" height="31.42" fill="#43317c"/><path d="M 628.33 219.92 A 31.42 31.42 0 0 1  659.75 251.33999999999997 L 628.33 219.92 A 31.42 31.42 0 0 0 659.75 251.33999999999997" fill="#181821"/><rect x="659.75" y="219.92" width="31.42" height="31.42" fill="#7553dc"/><path d="M 659.75 251.33999999999997 A 31.42 31.42 0 0 1  691.17 219.92 L 659.75 251.33999999999997 A 31.42 31.42 0 0 0 691.17 219.92" fill="#9394a8"/><rect x="0" y="251.33" width="62.83" height="62.83" fill="#87899b"/><path d="M 0 314.16 A 62.83 62.83 0 0 1  62.83 251.33 L 62.83 314.16" fill="#1f1937"/><rect x="62.83" y="251.33" width="62.83" height="62.83" fill="#553e9f"/><path d="M 62.83 314.16 A 62.83 62.83 0 0 1  125.66 251.33 L 125.66 314.16" fill="#26243a"/><rect x="125.66666666666667" y="251.33333333333334" width="62.833333333333336" height="62.833333333333336" fill="#0f0e17"/><rect x="125.67" y="251.33" width="31.42" height="31.42" fill="#13111f"/><path d="M 125.67 282.75 A 31.42 31.42 0 0 1  157.09 251.33 L 125.67 282.75 A 31.42 31.42 0 0 0 157.09 251.33" fill="#242136"/><rect x="157.08" y="251.33" width="31.42" height="31.42" fill="#13121d"/><path d="M 157.08 282.75 A 31.42 31.42 0 0 1  188.5 251.33 L 188.5 282.75" fill="#16151e"/><rect x="125.67" y="282.75" width="31.42" height="31.42" fill="#6a6b7b"/><path d="M 125.67 314.17 A 31.42 31.42 0 0 0 157.09 282.75 L 125.67 282.75" fill="#5b42ab"/><rect x="157.08" y="282.75" width="31.42" height="31.42" fill="#606070"/><path d="M 157.08 282.75 A 31.42 31.42 0 0 0 188.5 314.17 L 188.5 282.75" fill="#434351"/><rect x="188.5" y="251.33" width="62.83" height="62.83" fill="#767788"/><path d="M 188.5 251.33 A 62.83 62.83 0 0 1 251.32999999999998 314.16 L 188.5 314.16" fill="#211e31"/><rect x="251.33333333333334" y="251.33333333333334" width="62.833333333333336" height="62.833333333333336" fill="#0f0e17"/><rect x="251.33" y="251.33" width="31.42" height="31.42" fill="#1a1827"/><path d="M 251.33 282.75 A 31.42 31.42 0 0 1  282.75 251.33 L 282.75 282.75" fill="#110f1a"/><rect x="282.75" y="251.33" width="31.42" height="31.42" fill="#a6a8bc"/><path d="M 282.75 251.33 A 31.42 31.42 0 0 1 314.17 282.75 L 282.75 282.75" fill="#27253b"/><rect x="251.33" y="282.75" width="31.42" height="31.42" fill="#13121e"/><path d="M 251.33 282.75 A 31.42 31.42 0 0 1 282.75 314.17 L 251.33 314.17" fill="#13111f"/><rect x="282.75" y="282.75" width="31.42" height="31.42" fill="#0f0e17"/><path d="M 282.75 282.75 A 31.42 31.42 0 0 1 314.17 314.17 L 282.75 314.17" fill="#2f2354"/><rect x="314.17" y="251.33" width="62.83" height="62.83" fill="#28253c"/><path d="M 314.17 251.33 A 62.83 62.83 0 0 1  377 314.16 L 314.17 251.33 A 62.83 62.83 0 0 0 377 314.16" fill="#1d1b2c"/><rect x="377" y="251.33" width="62.83" height="62.83" fill="#2a204b"/><path d="M 377 314.16 A 62.83 62.83 0 0 1  439.83 251.33 L 377 314.16 A 62.83 62.83 0 0 0 439.83 251.33" fill="#41414e"/><rect x="439.83" y="251.33" width="62.83" height="62.83" fill="#1d1b2c"/><path d="M 439.83 314.16 A 62.83 62.83 0 0 1  502.65999999999997 251.33 L 439.83 314.16 A 62.83 62.83 0 0 0 502.65999999999997 251.33" fill="#242136"/><rect x="502.67" y="251.33" width="62.83" height="62.83" fill="#636373"/><path d="M 502.67 251.33 A 62.83 62.83 0 0 1 565.5 314.16 L 502.67 314.16" fill="#1a1923"/><rect x="565.5" y="251.33" width="62.83" height="62.83" fill="#40404d"/><path d="M 565.5 314.16 A 62.83 62.83 0 0 0 628.33 251.33 L 565.5 251.33" fill="#6c4dcb"/><rect x="628.33" y="251.33" width="62.83" height="62.83" fill="#2b2b36"/><path d="M 628.33 251.33 A 62.83 62.83 0 0 1  691.1600000000001 314.16 L 628.33 251.33 A 62.83 62.83 0 0 0 691.1600000000001 314.16" fill="#29263d"/><rect x="0" y="314.17" width="62.83" height="62.83" fill="#553d9e"/><path d="M 0 377 A 62.83 62.83 0 0 1  62.83 314.17 L 0 377 A 62.83 62.83 0 0 0 62.83 314.17" fill="#4a4a58"/><rect x="62.83" y="314.17" width="62.83" height="62.83" fill="#606170"/><path d="M 62.83 314.17 A 62.83 62.83 0 0 0 125.66 377 L 125.66 314.17" fill="#161522"/><rect x="125.67" y="314.17" width="62.83" height="62.83" fill="#6f4fd0"/><path d="M 125.67 314.17 A 62.83 62.83 0 0 1 188.5 377 L 125.67 377" fill="#222033"/><rect x="188.5" y="314.17" width="62.83" height="62.83" fill="#8a8b9e"/><path d="M 188.5 314.17 A 62.83 62.83 0 0 0 251.32999999999998 377 L 251.32999999999998 314.17" fill="#9596aa"/><rect x="251.33333333333334" y="314.1666666666667" width="62.833333333333336" height="62.833333333333336" fill="#0f0e17"/><rect x="251.33" y="314.17" width="31.42" height="31.42" fill="#222033"/><path d="M 251.33 345.59000000000003 A 31.42 31.42 0 0 1  282.75 314.17 L 282.75 345.59000000000003" fill="#7352d9"/><rect x="282.75" y="314.17" width="31.42" height="31.42" fill="#7654df"/><path d="M 282.75 345.59000000000003 A 31.42 31.42 0 0 1  314.17 314.17 L 314.17 345.59000000000003" fill="#201d30"/><rect x="251.33" y="345.58" width="31.42" height="31.42" fill="#242136"/><path d="M 251.33 377 A 31.42 31.42 0 0 1  282.75 345.58 L 251.33 377 A 31.42 31.42 0 0 0 282.75 345.58" fill="#12101b"/><rect x="282.75" y="345.58" width="31.42" height="31.42" fill="#0f0e18"/><path d="M 282.75 345.58 A 31.42 31.42 0 0 1  314.17 377 L 282.75 345.58 A 31.42 31.42 0 0 0 314.17 377" fill="#343440"/><rect x="314.17" y="314.17" width="62.83" height="62.83" fill="#27243a"/><path d="M 314.17 377 A 62.83 62.83 0 0 0 377 314.17 L 314.17 314.17" fill="#4f3992"/><rect x="377" y="314.17" width="62.83" height="62.83" fill="#6b6b7c"/><path d="M 377 377 A 62.83 62.83 0 0 1  439.83 314.17 L 377 377 A 62.83 62.83 0 0 0 439.83 314.17" fill="#413077"/><rect x="439.83" y="314.17" width="62.83" height="62.83" fill="#211e31"/><path d="M 439.83 314.17 A 62.83 62.83 0 0 0 502.65999999999997 377 L 502.65999999999997 314.17" fill="#483485"/><rect x="502.67" y="314.17" width="62.83" height="62.83" fill="#232034"/><path d="M 502.67 377 A 62.83 62.83 0 0 0 565.5 314.17 L 502.67 314.17" fill="#6347ba"/><rect x="565.5" y="314.1666666666667" width="62.833333333333336" height="62.833333333333336" fill="#0f0e17"/><rect x="565.5" y="314.17" width="31.42" height="31.42" fill="#7553dd"/><path d="M 565.5 345.59000000000003 A 31.42 31.42 0 0 1  596.92 314.17 L 565.5 345.59000000000003 A 31.42 31.42 0 0 0 596.92 314.17" fill="#5f44b2"/><rect x="596.92" y="314.17" width="31.42" height="31.42" fill="#282732"/><path d="M 596.92 345.59000000000003 A 31.42 31.42 0 0 1  628.3399999999999 314.17 L 596.92 345.59000000000003 A 31.42 31.42 0 0 0 628.3399999999999 314.17" fill="#595968"/><rect x="565.5" y="345.58" width="31.42" height="31.42" fill="#543d9e"/><path d="M 565.5 345.58 A 31.42 31.42 0 0 1  596.92 377 L 565.5 345.58 A 31.42 31.42 0 0 0 596.92 377" fill="#1b1929"/><rect x="596.92" y="345.58" width="31.42" height="31.42" fill="#261e43"/><path d="M 596.92 377 A 31.42 31.42 0 0 0 628.3399999999999 345.58 L 596.92 345.58" fill="#1a1a24"/><rect x="628.3333333333334" y="314.1666666666667" width="62.833333333333336" height="62.833333333333336" fill="#0f0e17"/><rect x="628.33" y="314.17" width="31.42" height="31.42" fill="#563ea0"/><path d="M 628.33 314.17 A 31.42 31.42 0 0 1  659.75 345.59000000000003 L 628.33 314.17 A 31.42 31.42 0 0 0 659.75 345.59000000000003" fill="#242136"/><rect x="659.75" y="314.17" width="31.42" height="31.42" fill="#656675"/><path d="M 659.75 314.17 A 31.42 31.42 0 0 1 691.17 345.59000000000003 L 659.75 345.59000000000003" fill="#211a3a"/><rect x="628.33" y="345.58" width="31.42" height="31.42" fill="#191726"/><path d="M 628.33 345.58 A 31.42 31.42 0 0 0 659.75 377 L 659.75 345.58" fill="#27243b"/><rect x="659.75" y="345.58" width="31.42" height="31.42" fill="#6a4cc8"/><path d="M 659.75 345.58 A 31.42 31.42 0 0 1  691.17 377 L 659.75 345.58 A 31.42 31.42 0 0 0 691.17 377" fill="#161325"/></g></svg>